<?xml version="1.0" standalone="no"?>
<!DOCTYPE svg PUBLIC "-//W3C//DTD SVG 20010904//EN"
 "http://www.w3.org/TR/2001/REC-SVG-20010904/DTD/svg10.dtd">
<svg version="1.0" xmlns="http://www.w3.org/2000/svg"
 width="479.000000pt" height="479.000000pt" viewBox="0 0 479.000000 479.000000"
 preserveAspectRatio="xMidYMid meet">
<metadata>
Created by potrace 1.11, written by Peter Selinger 2001-2013
</metadata>
<g transform="translate(0.000000,479.000000) scale(0.100000,-0.100000)"
fill="#000000" stroke="none">
<path d="M2185 4730 c-4 -6 -11 -7 -17 -4 -6 4 -14 1 -18 -6 -5 -8 -19 -15
-32 -17 -17 -2 -19 -1 -8 6 8 5 19 7 25 4 5 -4 7 -2 2 2 -9 11 -48 14 -41 4 2
-4 -6 -13 -18 -20 -22 -12 -22 -11 -8 7 14 17 14 18 -2 6 -9 -8 -22 -11 -28
-7 -5 3 -10 1 -10 -4 0 -6 5 -11 12 -11 6 0 8 -3 5 -7 -4 -3 -16 2 -27 12 -11
10 -23 15 -27 12 -3 -4 0 -7 7 -7 9 0 8 -5 -4 -19 -10 -10 -25 -18 -34 -16 -9
2 -17 4 -17 5 0 1 -8 3 -17 5 -11 2 -15 -2 -11 -12 5 -13 3 -14 -18 -3 -23 13
-23 12 -9 -5 9 -11 10 -16 2 -11 -7 4 -26 0 -44 -8 -34 -18 -51 -21 -28 -6 9
6 10 10 3 10 -6 0 -15 -4 -18 -10 -3 -5 -11 -10 -16 -10 -6 0 -7 5 -3 12 4 7
3 8 -5 4 -9 -6 -9 -11 0 -22 10 -12 9 -13 -6 -8 -12 5 -23 1 -31 -11 -8 -10
-14 -13 -14 -7 0 7 -5 12 -11 12 -6 0 -9 -7 -5 -15 4 -12 2 -13 -13 -6 -15 8
-25 5 -46 -14 -14 -14 -31 -23 -36 -20 -5 4 -9 -2 -9 -12 -1 -17 -2 -16 -17 2
-12 16 -14 17 -10 3 7 -20 -24 -42 -60 -43 -31 -1 -38 -12 -22 -32 12 -16 12
-17 -2 -6 -9 7 -20 9 -24 5 -5 -4 -5 0 -1 8 4 8 -2 4 -13 -9 -13 -14 -21 -18
-22 -10 0 8 -4 4 -9 -8 -8 -20 -31 -29 -62 -24 -4 0 -4 -7 -1 -16 5 -13 2 -15
-11 -10 -9 4 -15 3 -12 -1 2 -4 1 -14 -5 -22 -7 -13 -9 -13 -9 0 0 10 -8 6
-26 -13 -14 -15 -30 -24 -36 -21 -7 4 -8 2 -4 -4 9 -15 -6 -16 -21 -1 -8 8
-13 8 -18 0 -3 -7 -1 -10 6 -9 7 2 14 -7 15 -19 1 -12 -2 -20 -7 -18 -4 3 -11
1 -14 -5 -5 -8 -16 -5 -33 6 -24 15 -25 15 -14 1 12 -14 10 -18 -20 -32 -18
-8 -23 -12 -9 -9 16 4 21 3 17 -5 -4 -6 -14 -11 -22 -11 -8 0 -14 -5 -14 -11
0 -5 4 -8 8 -5 4 2 8 -4 8 -15 0 -16 -3 -17 -11 -7 -5 7 -19 14 -30 16 l-20 4
20 -16 c11 -9 16 -16 10 -15 -25 3 -49 -2 -40 -9 18 -13 14 -28 -6 -29 -32 -3
-51 -23 -38 -39 8 -10 5 -12 -18 -8 -15 2 -23 1 -17 -3 18 -13 13 -42 -5 -35
-9 3 -13 2 -9 -3 10 -11 -10 -45 -27 -45 -8 0 -14 -5 -12 -12 1 -7 -3 -12 -10
-13 -6 0 -15 -4 -20 -9 -5 -5 -3 -6 5 -2 17 10 15 -2 -3 -21 -8 -8 -12 -20 -8
-26 4 -7 0 -8 -11 -4 -11 5 -15 3 -10 -5 5 -8 1 -9 -12 -5 -17 6 -17 5 -2 -5
15 -11 15 -13 -4 -30 -14 -12 -17 -18 -7 -18 12 0 12 -2 -1 -9 -8 -6 -18 -7
-23 -4 -5 3 -4 -5 3 -17 7 -12 8 -20 2 -17 -5 4 -14 -5 -21 -19 -6 -15 -16
-22 -23 -18 -7 4 -8 3 -4 -5 4 -6 11 -9 16 -6 5 3 12 0 16 -6 5 -8 3 -9 -6 -4
-10 6 -12 4 -7 -8 8 -21 3 -21 -16 -3 -12 12 -14 8 -12 -29 2 -33 -1 -42 -11
-38 -10 4 -12 0 -7 -13 5 -13 3 -15 -8 -9 -12 8 -12 6 0 -8 9 -11 10 -17 2
-17 -6 0 -11 -5 -11 -11 0 -6 7 -9 15 -5 28 11 15 -4 -17 -19 -18 -8 -26 -13
-16 -11 20 6 18 -12 -6 -49 -10 -15 -13 -24 -7 -21 6 4 11 3 11 -3 0 -5 -4
-13 -10 -16 -5 -3 -10 -11 -10 -16 0 -6 5 -7 12 -3 7 4 8 3 4 -4 -4 -7 -15
-12 -24 -13 -14 0 -13 -2 3 -9 11 -5 14 -9 7 -9 -7 -1 -10 -5 -7 -11 3 -5 1
-10 -4 -10 -6 0 -11 -5 -11 -11 0 -5 5 -7 10 -4 6 3 10 2 10 -4 0 -5 -4 -13
-10 -16 -5 -3 -10 -11 -10 -16 0 -6 5 -7 11 -3 6 3 3 -6 -7 -22 -11 -15 -14
-25 -8 -21 7 4 15 0 18 -9 4 -10 2 -13 -6 -8 -8 5 -9 2 -5 -9 4 -10 2 -17 -5
-17 -6 0 -3 -10 8 -22 10 -12 13 -18 6 -14 -16 9 -16 -16 1 -34 10 -12 9 -12
-5 -2 -11 9 -18 10 -23 2 -3 -5 -1 -10 4 -10 6 0 11 -5 11 -11 0 -5 -4 -8 -8
-5 -5 3 -9 -2 -9 -10 0 -9 6 -13 16 -9 12 5 13 3 4 -6 -6 -6 -9 -18 -6 -27 4
-9 2 -13 -4 -9 -5 3 -10 0 -10 -8 0 -8 4 -15 8 -15 4 0 10 -7 13 -16 5 -13 3
-14 -6 -6 -10 8 -13 3 -14 -24 -1 -19 3 -34 8 -34 5 0 6 5 2 12 -4 7 -3 8 5 4
8 -6 9 -12 2 -20 -6 -7 -8 -16 -4 -19 3 -4 0 -7 -8 -7 -11 0 -11 -2 1 -10 13
-9 13 -10 0 -10 -13 0 -13 -1 0 -10 13 -9 13 -10 0 -10 -13 0 -13 -2 -1 -9 8
-5 16 -17 17 -25 1 -9 -2 -14 -7 -10 -5 3 -6 10 -3 16 5 7 2 8 -5 4 -7 -5 -10
-11 -7 -14 3 -3 1 -11 -5 -18 -8 -10 -6 -12 12 -9 21 4 22 3 7 -12 -13 -13
-14 -19 -5 -35 10 -15 9 -21 -3 -28 -10 -6 -11 -10 -2 -10 6 0 12 -4 12 -10 0
-5 -8 -7 -17 -4 -10 3 -7 -2 7 -10 23 -14 16 -22 -13 -17 -5 1 -6 -3 -3 -8 4
-5 2 -12 -3 -15 -10 -7 -9 -25 2 -43 4 -6 3 -14 -3 -18 -6 -4 -7 -11 -4 -17 4
-7 2 -8 -4 -4 -7 4 -12 2 -12 -5 0 -7 -3 -9 -7 -6 -3 4 2 16 12 27 17 18 17
20 2 14 -9 -3 -17 -11 -17 -16 0 -6 -6 -8 -13 -5 -8 3 -14 -1 -14 -9 0 -7 5
-10 11 -7 6 4 4 -2 -4 -13 -8 -10 -15 -20 -16 -22 -1 -2 -4 4 -8 13 -3 9 -2
13 4 10 6 -4 7 1 3 11 -4 11 -8 13 -11 6 -2 -7 -7 -10 -11 -7 -5 2 -7 -6 -6
-20 2 -16 -1 -22 -10 -18 -8 2 -11 12 -7 21 5 14 2 13 -13 -2 -11 -11 -25 -29
-30 -40 -7 -13 -20 -21 -33 -20 -19 1 -20 -1 -10 -14 9 -11 9 -14 1 -9 -18 11
-35 -26 -20 -43 9 -10 9 -11 0 -6 -9 5 -13 0 -13 -13 0 -12 -4 -21 -10 -21 -5
0 -10 -5 -10 -11 0 -5 4 -8 8 -5 4 2 8 -4 8 -14 0 -10 -4 -16 -8 -14 -4 3 -8
1 -8 -5 0 -5 6 -12 13 -14 9 -4 9 -7 0 -14 -14 -10 -13 -53 2 -53 5 0 3 -5 -5
-11 -11 -8 -12 -12 -2 -16 6 -2 12 -9 12 -14 0 -6 -4 -7 -10 -4 -5 3 -10 -3
-10 -14 0 -12 5 -21 10 -21 6 0 10 -5 10 -11 0 -5 -6 -7 -12 -3 -10 6 -10 4 0
-7 8 -9 12 -50 12 -131 0 -115 2 -123 31 -120 3 1 6 -6 6 -13 0 -11 -4 -12
-14 -3 -11 8 -12 7 -7 -6 3 -9 10 -16 16 -16 5 0 6 -4 3 -10 -3 -5 -1 -10 5
-10 6 0 8 -4 5 -10 -3 -5 -1 -10 5 -10 6 0 8 -4 5 -10 -3 -5 -1 -10 5 -10 6 0
10 -8 9 -17 -5 -38 31 -89 56 -80 9 4 12 0 10 -14 -5 -24 4 -49 17 -49 5 0 6
4 3 10 -3 6 1 7 10 4 14 -6 14 -8 -2 -20 -17 -13 -17 -13 4 -14 12 0 25 -5 29
-12 5 -7 3 -8 -5 -3 -10 6 -11 3 -2 -14 7 -11 14 -21 17 -21 3 0 3 4 -1 9 -3
5 -1 12 4 15 5 4 8 -5 6 -19 -1 -14 2 -28 8 -32 6 -3 7 -1 3 5 -4 7 -2 12 3
12 6 0 11 -6 11 -12 0 -10 2 -10 8 -1 10 16 30 -14 26 -39 -1 -12 3 -15 14
-10 15 5 16 4 2 -13 -9 -11 -10 -16 -3 -11 8 4 13 2 13 -4 0 -6 5 -8 12 -4 7
4 8 3 4 -5 -4 -6 -11 -9 -16 -6 -5 3 -12 1 -15 -5 -4 -6 -3 -10 2 -9 4 1 15 1
23 0 13 -1 13 -2 0 -11 -12 -8 -12 -10 -1 -10 11 0 11 -3 0 -17 -11 -13 -11
-15 -1 -9 10 6 13 1 12 -20 -3 -46 -1 -56 13 -49 6 4 3 -1 -7 -9 -19 -16 -19
-16 2 -16 25 0 28 -10 10 -28 -9 -9 -8 -12 6 -12 16 0 16 -1 2 -16 -20 -20
-21 -30 -1 -14 11 9 15 9 15 1 0 -7 5 -9 12 -5 7 4 8 3 4 -5 -4 -6 -12 -8 -18
-5 -8 5 -9 1 -5 -10 4 -10 7 -22 7 -27 0 -6 6 -7 12 -3 7 4 4 -3 -7 -17 -15
-18 -16 -20 -2 -10 15 12 17 11 17 -8 0 -11 5 -21 11 -21 6 0 9 -9 6 -20 -3
-11 -1 -20 4 -20 10 0 35 -59 31 -72 -1 -5 6 -8 15 -8 9 0 13 -3 10 -6 -3 -4
-1 -16 5 -28 11 -21 11 -21 -13 -2 -13 11 -9 5 9 -13 31 -31 42 -48 22 -36 -5
3 -10 -1 -10 -10 0 -10 -5 -13 -12 -9 -7 4 -8 3 -4 -5 6 -9 11 -9 22 0 8 6 17
9 21 5 3 -3 1 -6 -6 -6 -7 0 -10 -4 -7 -9 4 -5 0 -12 -6 -14 -7 -3 -4 -6 7 -6
17 -1 17 -3 5 -11 -8 -5 -10 -10 -4 -10 7 0 15 -7 18 -16 5 -12 3 -14 -7 -8
-7 5 -5 2 5 -8 19 -17 25 -33 9 -24 -5 3 -11 -1 -14 -8 -4 -10 0 -13 14 -11
16 3 18 1 10 -9 -7 -9 -7 -16 2 -26 9 -10 9 -11 0 -6 -9 5 -11 2 -7 -8 3 -9 9
-14 13 -11 4 2 8 -2 8 -10 0 -8 -4 -12 -9 -9 -4 3 -8 0 -8 -5 0 -6 6 -11 13
-11 8 0 7 -4 -3 -10 -10 -6 -11 -10 -2 -10 6 0 12 -5 12 -11 0 -5 -4 -8 -8 -5
-4 2 -8 -6 -8 -19 0 -13 4 -21 8 -19 5 3 5 10 2 16 -5 7 -2 8 6 3 10 -6 9 -12
-6 -24 -11 -9 -18 -25 -16 -36 l3 -20 -16 20 c-16 19 -16 19 -10 -7 5 -19 3
-28 -5 -28 -6 0 -8 -5 -5 -10 9 -14 -8 -12 -25 3 -12 10 -12 9 -3 -3 7 -10 8
-21 3 -30 -5 -8 -6 -19 -2 -25 3 -5 -3 -3 -13 5 -17 14 -18 14 -5 -10 12 -22
11 -24 -2 -13 -15 13 -15 14 -20 -34 -1 -18 -23 -45 -30 -38 -2 2 -10 -5 -17
-17 -9 -15 -9 -18 0 -13 8 5 10 4 5 -3 -4 -7 -14 -12 -21 -12 -9 0 -12 -6 -8
-17 4 -11 3 -14 -5 -9 -8 5 -10 1 -5 -10 5 -14 3 -16 -11 -11 -9 4 -15 3 -11
-2 3 -5 -1 -12 -7 -15 -7 -3 -2 -3 12 0 18 4 21 3 11 -4 -8 -6 -10 -15 -5 -23
6 -10 3 -10 -11 1 -16 13 -18 13 -13 0 2 -8 -6 -30 -19 -48 -12 -19 -20 -39
-17 -44 4 -6 -2 -6 -13 1 -18 9 -20 7 -19 -22 0 -24 -4 -32 -17 -32 -23 0 -37
-22 -37 -59 0 -21 -4 -27 -15 -22 -20 7 -32 -23 -14 -35 13 -8 12 -10 -11 -13
-5 0 -10 -4 -10 -8 0 -5 0 -13 0 -19 0 -8 5 -8 15 1 10 9 15 9 15 1 0 -15
2616 -16 2625 -1 3 6 11 10 16 10 6 0 7 -5 4 -10 -3 -6 1 -10 11 -10 13 0 14
3 5 13 -6 8 -7 17 -3 21 4 5 -2 6 -12 4 -11 -1 -21 4 -23 12 -4 13 -3 13 6 0
9 -12 11 -11 11 9 0 16 -4 21 -14 18 -11 -4 -13 -1 -9 10 5 12 3 14 -7 8 -8
-5 -11 -4 -6 3 3 6 1 14 -5 17 -5 4 -8 13 -5 21 3 7 0 16 -6 20 -7 5 -8 2 -3
-6 5 -8 4 -11 -2 -7 -5 3 -8 20 -5 36 2 17 8 28 13 25 5 -3 6 2 3 10 -3 9 -11
13 -18 10 -6 -3 -3 1 7 9 20 17 22 33 5 40 -7 3 -4 6 6 6 11 1 16 4 13 8 -4 3
-1 13 6 21 6 9 7 13 1 9 -6 -3 -11 1 -11 9 0 8 6 13 12 10 8 -3 12 6 10 26 -2
23 2 32 16 35 10 3 16 9 13 14 -3 5 -11 6 -17 2 -7 -4 -7 0 1 10 8 9 10 22 6
29 -6 10 -5 11 7 1 12 -10 17 -8 27 8 7 11 10 24 7 29 -4 6 1 10 10 10 9 0 14
4 11 8 -3 5 5 15 19 22 14 8 22 19 20 31 -2 12 1 16 10 13 7 -3 16 0 21 7 5 8
3 10 -7 5 -8 -4 -6 -1 5 8 11 9 15 20 10 28 -6 9 -3 9 10 -1 9 -8 16 -10 15
-5 -4 21 2 28 12 14 9 -13 10 -12 5 2 -6 21 19 76 27 56 3 -7 6 -3 6 10 1 13
5 21 10 17 6 -3 8 4 6 16 -3 16 -1 18 9 10 11 -9 13 -6 12 11 -1 19 4 23 24
21 l25 -3 -25 11 c-22 10 -23 12 -7 18 10 4 19 11 19 16 0 6 4 9 8 8 4 -1 5 7
2 19 -4 17 -2 20 12 15 14 -6 15 -3 6 13 -9 16 -7 20 7 21 11 0 13 3 6 6 -7 2
-13 9 -13 15 0 6 6 8 13 5 10 -4 13 2 9 20 -4 20 -2 24 8 18 8 -5 11 -4 6 3
-3 6 1 18 10 26 8 9 11 16 6 16 -6 0 -13 7 -16 16 -6 15 -4 15 11 3 13 -11 15
-11 9 -1 -5 8 -1 19 10 28 18 14 17 15 -6 8 l-25 -7 25 22 c14 13 18 20 10 16
-10 -4 -10 -2 2 8 13 10 14 17 6 25 -9 9 -6 10 11 7 19 -3 21 -2 11 10 -7 8
-17 12 -24 9 -6 -3 0 4 12 15 13 11 25 29 27 38 1 10 9 17 16 15 8 -2 6 4 -5
17 -12 13 -14 21 -7 21 7 0 10 4 7 9 -8 12 4 41 16 41 6 0 4 -8 -3 -18 -13
-15 -12 -16 4 -3 17 13 17 15 0 34 -18 19 -17 20 6 7 15 -7 21 -8 17 -1 -4 6
-1 11 6 11 10 0 9 3 -2 11 -12 8 -11 9 6 4 15 -4 24 0 28 10 3 9 10 13 16 10
5 -3 10 -1 10 6 0 7 10 9 25 7 13 -3 24 -2 23 1 -2 19 4 24 12 11 8 -13 10
-12 10 3 0 11 4 15 12 11 8 -5 9 -2 5 10 -4 9 -3 14 2 11 5 -3 12 -1 16 5 3 5
12 10 18 10 7 0 6 -4 -3 -10 -8 -5 -11 -10 -6 -10 14 0 55 48 47 56 -3 4 4 2
15 -4 25 -13 35 -7 26 16 -5 15 -4 16 13 2 11 -9 16 -10 11 -2 -4 7 -2 12 5
12 8 0 7 5 -2 17 -13 15 -12 15 10 4 13 -7 21 -8 17 -2 -4 5 3 15 15 21 14 8
19 18 16 31 -4 16 -2 17 16 7 20 -10 21 -9 9 5 -11 13 -11 15 0 13 7 -1 20 -6
28 -11 13 -8 13 -7 1 9 -13 15 -13 19 0 27 12 7 12 9 -1 9 -8 1 -4 5 9 11 16
6 21 14 17 25 -4 11 -2 15 8 11 12 -5 13 -1 6 18 -7 19 -6 23 6 18 10 -4 12 0
8 13 -4 11 -4 16 1 12 4 -4 14 0 21 10 9 13 9 19 1 24 -8 5 -5 8 7 8 20 0 20
0 0 15 -16 13 -17 14 -1 9 10 -4 17 -3 16 2 -4 21 2 34 15 34 9 0 13 10 11 30
-1 16 1 27 6 24 5 -3 6 -11 3 -17 -4 -7 -3 -8 1 -4 14 12 15 37 2 38 -7 0 -2
4 11 10 13 5 20 13 17 19 -4 6 -12 7 -18 3 -13 -7 19 34 43 55 8 7 10 11 5 8
-6 -2 -11 6 -11 19 0 13 4 23 10 22 5 -1 12 9 16 23 6 24 6 24 17 5 12 -20 12
-19 10 2 0 12 -5 19 -9 17 -12 -8 -9 11 4 24 9 9 7 13 -5 18 -9 3 -14 10 -11
16 3 5 13 4 22 -4 15 -12 16 -11 3 5 -8 10 -20 16 -27 13 -8 -3 -11 0 -8 8 3
8 13 13 22 11 9 -1 12 0 5 2 -7 2 -9 12 -6 21 6 14 4 15 -9 4 -13 -10 -18 -10
-24 -1 -4 8 -3 9 4 5 7 -4 12 -1 12 8 0 9 -5 16 -12 16 -6 0 -8 3 -5 6 4 4 13
2 20 -4 10 -9 14 -8 14 3 0 8 -4 12 -9 9 -4 -3 -8 0 -8 6 0 6 -4 8 -10 5 -11
-7 -13 5 -10 44 1 13 -2 21 -7 18 -5 -3 -8 8 -7 24 1 20 -4 33 -17 40 -11 5
-17 14 -14 20 4 5 1 9 -5 9 -6 0 -8 5 -5 10 3 5 -1 10 -10 10 -9 0 -13 4 -10
10 3 5 0 7 -8 4 -8 -3 -18 0 -23 7 -4 7 -3 10 4 5 6 -3 13 -2 16 3 10 15 -25
6 -36 -10 -8 -11 -9 -11 -4 4 3 9 1 17 -5 17 -6 0 -7 5 -3 12 4 7 3 8 -5 4 -6
-4 -9 -11 -6 -16 3 -5 1 -12 -5 -15 -6 -4 -9 -1 -8 6 2 6 -3 14 -11 17 -8 3
-11 0 -7 -7 5 -7 1 -9 -8 -5 -9 3 -16 10 -16 15 0 5 -5 9 -11 9 -6 0 -8 -9 -3
-22 l6 -23 -19 22 c-22 24 -35 21 -27 -5 3 -10 -2 -6 -10 8 -14 23 -15 23 -16
5 -1 -19 -1 -19 -14 -2 -7 9 -16 17 -20 17 -9 0 -3 -24 9 -33 6 -5 4 -7 -5 -4
-8 2 -14 10 -12 17 2 7 -3 10 -12 7 -8 -3 -20 2 -28 11 -9 11 -10 14 0 8 7 -4
12 -1 12 8 0 9 0 19 0 24 0 4 -4 7 -9 7 -5 0 -13 4 -18 9 -5 5 -3 6 5 2 6 -4
12 -2 12 4 0 6 4 8 10 5 7 -4 7 3 0 19 -7 19 -6 26 3 26 8 0 8 3 -2 9 -10 6
-10 10 -1 16 9 6 9 10 -1 16 -9 6 -10 9 -2 9 7 0 10 12 8 30 -3 19 0 30 8 30
7 0 6 4 -3 10 -10 6 -11 10 -2 10 6 0 12 10 11 23 0 12 -3 16 -6 10 -2 -7 -9
-13 -15 -13 -6 0 -3 9 6 19 16 18 16 20 1 29 -16 8 -16 10 -1 15 9 4 16 14 16
22 0 10 -5 13 -12 9 -7 -4 -5 2 5 13 15 18 17 25 7 43 -8 15 -8 20 -1 16 7 -5
11 2 11 18 0 13 -6 27 -12 30 -7 4 -3 4 10 2 17 -3 21 -1 14 7 -12 15 -21 67
-12 67 3 0 5 14 2 30 -3 21 0 30 9 31 8 0 5 4 -6 9 -11 5 -14 9 -6 9 11 1 10
6 -3 26 -12 18 -12 23 -3 19 8 -3 14 2 14 11 0 8 -7 15 -16 16 -10 0 -12 2 -3
6 6 2 12 14 12 24 0 13 -4 18 -12 13 -7 -5 -8 -3 -2 7 12 20 14 39 3 39 -6 0
-5 9 2 21 8 16 8 20 0 14 -8 -5 -11 2 -8 22 3 17 -2 36 -12 47 -9 11 -11 17
-5 13 7 -4 10 3 10 19 -1 14 -10 30 -20 36 -17 9 -17 11 0 29 17 19 17 20 -2
13 -10 -4 -16 -4 -12 1 4 4 0 14 -10 21 -15 12 -14 13 8 8 14 -2 19 -2 12 2
-6 3 -10 10 -7 14 3 5 0 12 -6 16 -8 5 -9 3 -4 -7 8 -12 6 -12 -8 0 -18 14
-24 26 -8 17 5 -3 11 3 14 14 3 11 0 23 -5 27 -7 4 -8 1 -3 -7 6 -9 4 -11 -4
-6 -7 5 -10 14 -7 22 3 8 0 14 -7 14 -8 0 -6 4 3 10 12 8 12 10 -5 11 -12 0
-15 3 -7 6 10 4 9 9 -5 20 -10 8 -12 11 -5 8 12 -6 12 -3 1 16 -7 13 -14 29
-14 34 0 6 -9 9 -20 8 -11 -1 -14 0 -7 3 6 3 12 12 12 20 0 9 -4 12 -10 9 -5
-3 -10 1 -10 10 0 10 5 13 12 9 7 -4 8 -3 4 5 -6 9 -11 9 -21 1 -10 -9 -13 -7
-11 7 2 10 -3 24 -11 31 -7 8 -11 18 -8 23 4 5 1 9 -4 9 -6 0 -11 7 -11 16 0
9 5 12 13 8 6 -4 8 -3 4 1 -10 12 -39 16 -32 5 3 -5 1 -11 -4 -14 -5 -4 -8 5
-6 19 1 14 -2 25 -7 25 -5 0 -6 5 -2 12 5 8 2 9 -9 5 -9 -3 -19 -1 -23 5 -4 7
-3 8 4 4 7 -4 12 -2 12 3 0 10 -22 16 -44 12 -5 -1 -4 4 2 11 7 9 8 19 2 28
-6 8 -10 11 -10 7 0 -4 -6 -2 -14 5 -8 7 -11 18 -8 23 3 6 -3 3 -13 -5 -11 -9
-16 -10 -11 -2 4 7 2 12 -4 12 -6 0 -8 5 -5 11 4 5 -1 19 -11 30 -13 15 -20
16 -31 7 -11 -9 -13 -8 -11 3 2 9 -5 13 -20 12 -13 -2 -21 1 -17 7 3 6 14 10
23 10 14 0 15 2 2 9 -8 6 -18 7 -22 5 -4 -3 -5 3 -1 13 6 16 5 17 -12 3 -11
-9 -16 -10 -11 -2 6 11 -4 16 -25 14 -4 -1 -5 8 -2 18 6 22 -7 26 -23 10 -7
-7 -11 -6 -11 4 0 8 4 13 8 10 4 -2 10 -1 13 4 8 13 -28 11 -36 -2 -4 -6 -6 3
-4 20 4 31 3 32 -44 36 -11 1 -23 10 -26 20 -3 10 -12 18 -20 18 -8 0 -14 6
-14 14 0 8 -9 18 -20 21 -11 4 -17 11 -14 17 4 6 2 8 -4 5 -13 -9 -44 2 -37
13 3 5 0 12 -6 16 -7 4 -9 3 -5 -4 3 -6 2 -13 -4 -17 -5 -3 -10 -1 -10 4 0 23
-2 26 -22 34 -14 5 -25 3 -30 -5 -6 -9 -8 -7 -7 7 2 34 0 38 -18 24 -14 -12
-16 -12 -8 0 6 11 3 13 -13 9 -12 -4 -25 -1 -29 4 -4 7 -1 8 7 3 9 -5 11 -4 6
3 -4 7 -18 12 -32 12 -13 0 -24 6 -24 13 0 8 -9 22 -20 32 -19 17 -24 14 -21
-10 1 -5 -5 -2 -12 8 -8 9 -24 17 -36 17 -12 0 -19 4 -16 10 3 6 1 10 -4 10
-6 0 -11 -6 -12 -12 0 -7 -4 -3 -9 8 -6 17 -16 21 -39 19 -17 -1 -28 1 -25 6
3 5 9 7 14 4 5 -3 11 -1 15 4 6 11 -27 7 -46 -5 -7 -4 -7 2 1 17 l13 24 -25
-23 c-18 -16 -25 -18 -25 -8 0 8 5 12 11 9 6 -3 8 -3 4 2 -4 4 -3 14 3 21 8
10 6 11 -14 1 -14 -6 -23 -16 -20 -21 4 -5 1 -6 -5 -2 -6 4 -8 14 -5 24 6 15
5 16 -12 2 -10 -8 -16 -10 -12 -4 4 7 0 15 -9 18 -8 3 -12 2 -9 -4 4 -6 -3 -6
-20 0 -15 6 -31 7 -37 4 -7 -4 -8 -2 -4 4 4 7 2 12 -4 12 -6 0 -8 5 -4 13 6 9
4 9 -7 1 -16 -13 -51 -15 -43 -2 3 4 -4 8 -16 8 -13 0 -19 -4 -14 -12 4 -7 3
-8 -4 -4 -6 4 -8 14 -5 24 6 15 5 16 -12 2 -10 -8 -16 -10 -13 -5 4 6 -3 17
-15 25 -20 12 -21 12 -8 -3 9 -11 10 -17 2 -18 -34 -4 -46 -2 -44 7 1 5 -7 16
-19 23 -11 7 -17 8 -14 3 3 -6 -1 -12 -9 -15 -8 -4 -12 -1 -9 6 5 14 -33 17
-53 4 -6 -4 -15 -2 -19 4 -5 8 -3 9 6 4 9 -6 11 -4 5 4 -5 9 -11 9 -17 3 -6
-6 -18 -8 -27 -4 -14 5 -15 4 -1 -14 14 -17 14 -18 -2 -6 -13 10 -17 10 -22 0
-3 -7 -3 -2 1 12 5 22 4 23 -11 11 -9 -7 -16 -9 -16 -4 0 12 -55 11 -67 -1 -4
-5 -3 -6 4 -2 9 5 11 2 7 -8 -3 -9 -10 -16 -16 -16 -5 0 -6 5 -2 12 5 8 0 9
-17 5 -23 -6 -23 -5 -5 8 11 8 15 15 9 15 -7 0 -15 -5 -18 -10z m94 -14 c8
-10 9 -16 1 -21 -6 -4 -9 -1 -8 7 2 7 -3 12 -10 10 -8 -1 -11 2 -7 8 8 13 10
13 24 -4z m-106 -9 c3 -8 -1 -14 -9 -14 -15 0 -18 9 -7 20 9 9 10 9 16 -6z
m-477 -139 c4 -7 3 -8 -5 -4 -6 4 -14 0 -17 -8 -3 -9 -10 -13 -16 -10 -5 3 -1
12 9 20 22 17 20 16 29 2z m1354 -69 c0 -18 -18 -9 -23 12 -4 16 -3 18 9 8 8
-6 14 -15 14 -20z m155 -88 c3 -5 2 -12 -3 -15 -5 -3 -9 1 -9 9 0 17 3 19 12
6z m63 -66 c-3 -3 -9 2 -12 12 -6 14 -5 15 5 6 7 -7 10 -15 7 -18z m162 -88
c0 -2 -8 -3 -18 -3 -10 0 -19 6 -19 13 0 8 6 9 19 2 10 -5 18 -11 18 -12z
m-2237 -2 c-3 -9 -8 -14 -10 -11 -3 3 -2 9 2 15 9 16 15 13 8 -4z m-133 -135
c-8 -5 -19 -10 -25 -10 -5 0 -3 5 5 10 8 5 20 10 25 10 6 0 3 -5 -5 -10z
m2549 -24 c9 -11 9 -16 0 -22 -8 -4 -9 -3 -5 4 4 7 2 12 -3 12 -6 0 -11 5 -11
10 0 14 5 13 19 -4z m348 -661 c0 -8 -4 -15 -9 -15 -10 0 -11 14 -1 23 9 10
10 9 10 -8z m-3264 -697 c-4 -7 -8 -17 -8 -22 0 -5 -7 -11 -15 -13 -13 -4 -13
-3 0 6 13 10 13 11 0 11 -11 1 -10 4 4 15 24 18 30 19 19 3z m-166 -150 c-3
-8 -6 -5 -6 6 -1 11 2 17 5 13 3 -3 4 -12 1 -19z m3428 -58 c-3 -5 -12 -10
-18 -10 -7 0 -6 4 3 10 19 12 23 12 15 0z m270 -108 c-3 -3 -11 0 -18 7 -9 10
-8 11 6 5 10 -3 15 -9 12 -12z m125 -296 c0 -2 -7 -9 -15 -16 -13 -11 -14 -10
-9 4 5 14 24 23 24 12z m-3823 -299 c1 -11 1 -18 0 -16 -2 2 -8 11 -15 20 -9
12 -9 16 1 16 7 0 14 -9 14 -20z m2743 -1351 c0 -3 -4 -8 -10 -11 -5 -3 -10
-1 -10 4 0 6 5 11 10 11 6 0 10 -2 10 -4z m-2628 -334 c-7 -2 -10 -8 -7 -12 3
-5 1 -11 -4 -14 -5 -4 -8 2 -6 11 2 10 4 22 4 26 1 5 6 5 13 1 9 -6 9 -9 0
-12z m2548 -72 c0 -5 -5 -10 -11 -10 -5 0 -7 5 -4 10 3 6 8 10 11 10 2 0 4 -4
4 -10z"/>
<path d="M2508 4712 c-3 -11 0 -19 7 -19 7 0 10 8 7 19 -2 10 -6 18 -7 18 -1
0 -5 -8 -7 -18z"/>
<path d="M2649 4683 c-13 -16 -12 -17 4 -4 16 13 21 21 13 21 -2 0 -10 -8 -17
-17z"/>
<path d="M1970 4679 c0 -5 5 -7 10 -4 6 3 10 8 10 11 0 2 -4 4 -10 4 -5 0 -10
-5 -10 -11z"/>
<path d="M2706 4658 c3 -4 9 -8 15 -8 5 0 9 4 9 8 0 5 -7 9 -15 9 -8 0 -12 -4
-9 -9z"/>
<path d="M1516 4511 c9 -9 34 -9 34 -1 0 5 -9 8 -20 7 -10 -1 -17 -3 -14 -6z"/>
<path d="M3070 4505 c0 -8 4 -15 10 -15 5 0 7 7 4 15 -4 8 -8 15 -10 15 -2 0
-4 -7 -4 -15z"/>
<path d="M1275 4360 c-3 -5 -1 -10 4 -10 6 0 11 5 11 10 0 6 -2 10 -4 10 -3 0
-8 -4 -11 -10z"/>
<path d="M1220 4299 c0 -5 -5 -7 -12 -3 -7 4 -8 3 -4 -5 6 -9 11 -9 22 0 17
14 18 19 4 19 -5 0 -10 -5 -10 -11z"/>
<path d="M3510 4200 c-9 -6 -10 -10 -3 -10 6 0 15 5 18 10 8 12 4 12 -15 0z"/>
<path d="M955 4050 c-3 -5 -1 -10 4 -10 6 0 11 5 11 10 0 6 -2 10 -4 10 -3 0
-8 -4 -11 -10z"/>
<path d="M480 2579 c0 -5 5 -7 10 -4 6 3 10 8 10 11 0 2 -4 4 -10 4 -5 0 -10
-5 -10 -11z"/>
<path d="M3966 2503 c-6 -14 -5 -15 5 -6 7 7 10 15 7 18 -3 3 -9 -2 -12 -12z"/>
<path d="M4315 2030 c-3 -5 -1 -10 4 -10 6 0 11 5 11 10 0 6 -2 10 -4 10 -3 0
-8 -4 -11 -10z"/>
<path d="M4290 1965 c-7 -9 -8 -15 -2 -15 5 0 12 7 16 15 3 8 4 15 2 15 -2 0
-9 -7 -16 -15z"/>
<path d="M675 1610 c-3 -5 1 -10 10 -10 9 0 13 5 10 10 -3 6 -8 10 -10 10 -2
0 -7 -4 -10 -10z"/>
<path d="M824 482 c3 -5 0 -13 -6 -15 -9 -4 -10 -6 -1 -6 17 -1 25 16 12 25
-7 4 -9 3 -5 -4z"/>
<path d="M697 274 c-26 -35 -17 -38 11 -3 13 16 20 29 15 29 -4 0 -16 -12 -26
-26z"/>
</g>
</svg>
