<?xml version="1.0" standalone="no"?>
<!DOCTYPE svg PUBLIC "-//W3C//DTD SVG 20010904//EN"
 "http://www.w3.org/TR/2001/REC-SVG-20010904/DTD/svg10.dtd">
<svg version="1.0" xmlns="http://www.w3.org/2000/svg"
 width="342.000000pt" height="342.000000pt" viewBox="0 0 342.000000 342.000000"
 preserveAspectRatio="xMidYMid meet">
<metadata>
Created by potrace 1.11, written by Peter Selinger 2001-2013
</metadata>
<g transform="translate(0.000000,342.000000) scale(0.100000,-0.100000)"
fill="#000000" stroke="none">
<path d="M1696 3041 c-3 -5 -23 -7 -45 -4 -23 3 -41 1 -45 -6 -4 -6 -17 -11
-29 -11 -13 0 -31 -6 -42 -14 -11 -7 -45 -16 -75 -20 -30 -4 -59 -11 -65 -16
-23 -19 -87 -50 -102 -50 -8 0 -41 -14 -72 -32 -31 -18 -57 -31 -59 -30 -12
11 -192 -116 -216 -153 -9 -14 -22 -25 -29 -25 -21 0 -180 -162 -234 -241 -9
-11 -15 -43 -15 -71 0 -40 -4 -51 -18 -55 -33 -9 -103 -187 -124 -318 -15 -88
-13 -300 2 -355 6 -19 16 -66 22 -105 13 -77 58 -215 70 -215 4 0 11 -26 15
-57 3 -32 15 -71 26 -88 10 -16 23 -41 29 -54 18 -40 133 -163 166 -177 17 -7
36 -20 43 -28 7 -8 27 -18 44 -22 18 -3 37 -10 43 -15 17 -14 125 -50 159 -54
17 -1 41 -5 55 -8 14 -4 39 -9 55 -11 17 -3 56 -11 88 -16 98 -18 129 -21 141
-11 7 6 26 7 46 2 21 -5 51 -3 75 4 l40 11 -31 17 c-19 9 -78 20 -150 26 -131
12 -164 17 -209 31 -16 6 -54 12 -84 15 -59 5 -162 46 -201 80 -14 11 -42 30
-63 41 -34 17 -157 141 -182 183 -20 34 -55 127 -55 147 0 12 -9 33 -20 47
-11 14 -20 32 -20 40 0 9 -5 17 -11 19 -9 3 -9 10 1 27 10 19 10 31 0 62 -7
21 -16 36 -21 34 -14 -9 -17 20 -11 118 3 61 1 101 -5 105 -5 4 -15 22 -21 40
-10 28 -9 35 8 52 20 20 33 67 31 118 -1 20 7 44 18 58 11 14 17 32 14 40 -3
8 0 21 7 29 7 8 14 29 15 47 7 67 18 99 37 112 11 8 21 25 22 39 0 14 4 23 9
20 4 -2 7 5 7 16 0 11 10 26 23 32 21 12 21 11 7 -6 -9 -11 -10 -16 -3 -11 7
4 25 32 39 62 14 30 29 52 34 49 5 -3 12 1 17 8 4 8 18 20 31 26 14 7 21 18
18 27 -3 7 -1 13 3 11 5 -1 24 14 43 34 18 19 54 52 81 73 26 21 44 42 41 48
-4 6 2 8 16 3 14 -4 20 -3 16 3 -7 12 20 36 32 28 12 -7 54 38 45 48 -5 4 8 5
28 2 28 -4 45 0 70 17 19 13 42 26 52 30 9 3 17 11 17 16 0 10 25 22 55 26 11
2 51 15 89 29 70 27 91 32 68 17 -8 -5 4 -8 31 -7 25 1 40 4 35 7 -10 6 63 18
107 17 89 -1 174 6 169 14 -3 5 7 3 24 -6 21 -11 38 -13 60 -7 24 7 41 4 82
-16 54 -26 147 -53 180 -53 32 0 24 34 -12 52 -38 19 -141 51 -178 54 -32 3
-52 8 -67 17 -7 4 -58 10 -115 13 -58 3 -113 11 -129 20 -33 17 -36 17 -43 5z"/>
<path d="M2275 2890 c3 -5 11 -10 16 -10 6 0 7 5 4 10 -3 6 -11 10 -16 10 -6
0 -7 -4 -4 -10z"/>
<path d="M2308 2868 c-14 -14 -23 -18 -26 -10 -2 7 -11 12 -20 12 -11 0 -4
-13 23 -40 26 -26 45 -38 56 -35 10 3 20 1 24 -4 3 -6 25 -19 49 -30 48 -21
65 -39 47 -50 -8 -5 3 -17 29 -35 23 -15 39 -30 37 -33 -3 -3 10 -18 29 -35
19 -17 34 -34 34 -40 0 -5 21 -37 48 -71 26 -34 46 -65 44 -69 -1 -5 4 -8 10
-8 7 0 27 -11 43 -25 25 -21 28 -26 15 -35 -8 -5 -21 -7 -29 -5 -11 5 -12 3
-1 -10 7 -8 16 -12 21 -9 5 3 9 -6 9 -19 0 -13 8 -31 18 -40 13 -12 18 -29 17
-55 -2 -27 7 -52 31 -94 35 -58 41 -78 24 -78 -17 0 -11 -14 20 -48 16 -18 34
-40 39 -50 5 -9 12 -14 16 -11 6 6 -10 124 -21 163 -5 13 -2 17 7 12 8 -4 5 0
-6 9 -11 9 -20 20 -20 25 0 4 -3 12 -7 16 -5 4 -8 18 -8 31 0 14 -15 45 -32
71 -18 26 -33 54 -33 63 0 9 -6 23 -13 32 -8 9 -14 22 -16 29 -1 7 -17 36 -36
63 -34 48 -42 62 -75 122 -19 37 -182 213 -223 244 -19 13 -43 34 -55 47 -26
28 -41 28 -69 0z"/>
<path d="M1060 2592 c-9 -3 -51 -45 -117 -117 -9 -9 -10 -22 -3 -45 5 -18 7
-37 4 -41 -3 -5 0 -9 6 -9 6 0 8 -4 5 -10 -3 -5 4 -90 16 -187 11 -98 23 -200
25 -228 3 -27 12 -97 20 -155 15 -104 17 -122 29 -250 3 -36 8 -73 11 -83 3
-9 7 -36 9 -60 7 -67 16 -160 20 -187 5 -34 18 -130 21 -155 1 -11 3 -37 3
-57 l1 -38 70 0 70 0 -6 303 c-8 422 -8 496 0 504 3 3 84 6 179 5 l173 -2 39
41 38 41 3 329 2 330 -35 37 -35 37 -269 0 c-148 0 -273 -1 -279 -3z m346
-146 c16 1 40 0 53 -3 23 -6 24 -8 17 -82 -4 -54 -11 -80 -23 -88 -11 -9 -55
-13 -129 -13 -77 0 -115 4 -122 13 -5 6 -13 32 -17 57 -4 25 -9 52 -10 62 -7
34 20 52 80 55 32 1 60 4 62 7 3 2 17 1 32 -4 15 -4 41 -6 57 -4z m58 -314 c4
-10 5 -46 4 -80 l-2 -62 -56 -2 c-30 -1 -79 -2 -109 -2 l-55 -1 -13 50 c-27
105 -17 115 122 115 91 0 104 -2 109 -18z"/>
<path d="M1826 2557 l-35 -38 3 -293 c1 -161 5 -297 9 -303 4 -6 2 -13 -4 -15
-17 -6 13 -68 47 -100 l29 -26 178 1 177 2 1 -25 c2 -34 1 -40 -5 -437 l-6
-353 64 0 64 0 8 43 c4 23 8 56 9 72 1 17 5 53 9 80 17 123 26 193 31 235 2
25 7 56 10 69 2 14 9 72 15 130 6 58 17 153 25 211 8 58 17 132 20 165 3 33 8
71 11 85 2 14 6 52 9 85 3 33 8 78 11 99 6 39 8 52 19 155 3 29 7 57 8 61 1 4
-28 37 -64 74 l-67 66 -88 -6 c-49 -4 -98 -6 -109 -5 -11 1 -93 3 -182 4
l-162 2 -35 -38z m419 -126 l40 -7 -3 -64 c-2 -36 -7 -66 -13 -68 -5 -2 -9
-10 -9 -18 0 -11 -18 -14 -77 -15 -187 -4 -195 0 -192 86 1 35 6 70 10 76 4 7
26 13 48 13 23 1 41 4 41 9 0 7 73 1 155 -12z m-45 -285 c62 -1 65 -6 54 -97
-5 -41 -9 -47 -37 -56 -35 -10 -173 -10 -184 1 -3 3 -15 6 -25 6 -18 0 -22 17
-21 93 1 53 9 60 58 54 25 -2 48 0 51 5 3 5 15 6 27 2 12 -4 47 -8 77 -8z"/>
<path d="M2696 2387 c3 -10 9 -15 12 -12 3 3 0 11 -7 18 -10 9 -11 8 -5 -6z"/>
<path d="M2800 2081 c0 -6 4 -13 10 -16 6 -3 7 1 4 9 -7 18 -14 21 -14 7z"/>
<path d="M2824 1956 c-3 -15 -1 -37 5 -49 10 -20 11 -19 6 8 -5 28 -4 29 10
11 21 -28 31 -86 15 -96 -7 -5 -13 -31 -13 -66 -1 -33 -6 -63 -12 -67 -6 -5
-2 -6 8 -3 10 3 30 3 43 0 27 -7 26 -27 -3 -72 -12 -19 -17 -21 -29 -11 -8 7
-14 8 -13 3 1 -5 1 -11 0 -14 -7 -16 -5 -99 1 -120 6 -19 -1 -47 -27 -110 -27
-62 -37 -103 -39 -151 -3 -54 -7 -70 -28 -91 -15 -14 -29 -42 -33 -66 -7 -42
-36 -79 -55 -67 -5 3 -7 12 -4 18 4 7 -14 -10 -38 -38 -25 -27 -44 -55 -41
-61 5 -14 -76 -86 -88 -78 -5 3 -17 0 -26 -5 -10 -6 -14 -11 -9 -11 5 0 3 -6
-3 -14 -8 -9 7 -7 44 8 32 12 53 26 50 33 -2 6 11 24 30 39 19 15 32 31 29 36
-3 5 -2 8 3 7 15 -4 58 19 79 42 31 34 66 108 60 125 -3 8 -1 13 5 11 6 -1 23
26 39 61 16 34 24 60 19 56 -6 -3 -5 3 3 15 7 12 16 21 20 21 5 0 8 10 8 22 0
12 9 40 19 62 61 127 63 138 66 358 1 113 -1 212 -6 220 -6 9 -9 3 -9 -17 0
-30 0 -30 -35 19 -45 64 -43 62 -51 32z"/>
<path d="M2747 1233 c-4 -3 -7 -11 -7 -17 0 -6 5 -5 12 2 6 6 9 14 7 17 -3 3
-9 2 -12 -2z"/>
<path d="M2670 1048 c-12 -22 -12 -22 6 -6 10 10 15 20 12 24 -4 3 -12 -5 -18
-18z"/>
<path d="M2304 785 c-14 -11 -15 -14 -4 -14 8 0 24 6 34 14 15 11 16 15 5 15
-8 0 -24 -7 -35 -15z"/>
<path d="M2252 758 c3 -7 13 -15 23 -17 17 -3 17 -2 3 13 -20 19 -31 21 -26 4z"/>
<path d="M2155 720 c4 -6 11 -8 16 -5 14 9 11 15 -7 15 -8 0 -12 -5 -9 -10z"/>
<path d="M1865 610 c3 -5 10 -10 16 -10 5 0 9 5 9 10 0 6 -7 10 -16 10 -8 0
-12 -4 -9 -10z"/>
<path d="M1729 599 c-1 -8 -1 -21 0 -30 2 -19 -30 -31 -50 -18 -13 8 -39 -6
-39 -21 0 -3 20 -6 45 -6 39 1 45 -1 42 -19 -1 -11 -7 -27 -12 -35 -5 -8 -10
-21 -12 -29 -1 -8 -7 -17 -14 -21 -6 -4 -9 -14 -7 -21 8 -25 67 48 74 91 6 36
9 40 31 37 31 -4 39 -17 37 -62 -2 -37 -20 -69 -34 -60 -5 3 -11 1 -15 -4 -3
-6 2 -14 12 -20 13 -6 24 -4 40 8 17 14 22 32 26 84 4 71 -3 95 -24 81 -12 -7
-35 -9 -68 -5 -5 1 -7 9 -4 19 2 10 -3 24 -11 31 -13 11 -16 11 -17 0z"/>
<path d="M1030 583 c0 -7 11 -13 25 -13 29 0 51 -32 32 -48 -7 -6 -27 -12 -46
-14 -47 -4 -50 -23 -5 -26 48 -4 54 -8 49 -34 -3 -12 0 -27 6 -35 7 -7 8 -13
3 -13 -5 -1 2 -7 16 -15 34 -19 96 -19 104 0 6 17 6 17 -46 19 -45 2 -49 6
-52 45 -2 30 -1 31 43 31 50 0 83 13 59 23 -8 2 -32 4 -55 2 -33 -2 -42 1 -46
16 -11 42 1 54 49 51 24 -2 44 0 44 6 0 14 -35 21 -54 10 -9 -5 -16 -5 -16 0
0 5 -25 9 -55 9 -39 0 -55 -4 -55 -14z"/>
<path d="M1841 584 c0 -11 3 -14 6 -6 3 7 2 16 -1 19 -3 4 -6 -2 -5 -13z"/>
<path d="M1375 581 c-7 -12 12 -24 24 -17 5 3 8 -2 7 -11 0 -9 5 -18 12 -20
17 -7 15 23 -4 41 -18 18 -30 20 -39 7z"/>
<path d="M2302 573 c3 -16 15 -18 91 -18 57 0 87 3 87 11 0 18 -12 25 -26 13
-8 -7 -14 -7 -18 0 -4 6 -16 7 -29 2 -22 -8 -40 -7 -85 4 -19 5 -23 2 -20 -12z"/>
<path d="M1960 568 c0 -15 29 -23 95 -24 39 -1 73 -2 78 -3 10 -1 9 -29 -2
-33 -14 -5 -24 -48 -11 -48 12 0 60 48 58 59 -1 3 2 14 7 24 4 10 5 20 2 23
-7 8 -227 10 -227 2z"/>
<path d="M2385 487 c1 -62 -3 -77 -18 -72 -48 14 -75 13 -79 -3 -4 -16 7 -18
108 -20 106 -2 112 -1 107 17 -4 15 -12 18 -44 15 -41 -4 -45 3 -41 59 2 20
-15 57 -26 57 -4 0 -7 -24 -7 -53z"/>
<path d="M1505 486 c-26 -40 -72 -64 -111 -59 -21 3 -34 0 -34 -7 0 -6 -5 -8
-12 -4 -9 5 -9 2 1 -9 15 -19 107 -25 96 -7 -3 6 1 7 9 4 9 -4 18 1 22 10 3 9
9 14 14 11 9 -5 45 73 37 81 -3 3 -13 -6 -22 -20z"/>
<path d="M2030 462 c0 -4 9 -15 20 -25 11 -9 17 -23 14 -32 -4 -11 0 -15 16
-15 17 0 20 4 15 23 -10 33 -65 75 -65 49z"/>
</g>
</svg>
